/* XPM */
static char *result[] = {
/* columns rows colors chars-per-pixel */
"32 32 114 2 ",
"   c #594C45",
".  c #5B4F49",
"X  c #5E524C",
"o  c #565A4F",
"O  c #5B5D4D",
"+  c #5A5D52",
"@  c #60544F",
"#  c #625E4E",
"$  c #635651",
"%  c #655954",
"&  c #685C57",
"*  c #665E5B",
"=  c #6A5E59",
"-  c #5D604F",
";  c #506050",
":  c #5E6151",
">  c #646353",
",  c #606951",
"<  c #6D615D",
"1  c #666A5D",
"2  c #6B6A5B",
"3  c #70645F",
"4  c #67715A",
"5  c #6D6463",
"6  c #666D62",
"7  c #696D63",
"8  c #736763",
"9  c #726A64",
"0  c #726B6A",
"q  c #627560",
"w  c #6B7266",
"e  c #6E7B67",
"r  c #6F7B68",
"t  c #737163",
"y  c #7E7675",
"u  c #767D70",
"i  c #787F79",
"p  c #807776",
"a  c #807877",
"s  c #847C7C",
"d  c #1D965D",
"f  c #1F985A",
"g  c #349D4F",
"h  c #29865A",
"j  c #268F5B",
"k  c #299057",
"l  c #219A57",
"z  c #279159",
"x  c #2B925A",
"c  c #21995A",
"v  c #3C9753",
"b  c #2FA54D",
"n  c #30A54D",
"m  c #3AA053",
"M  c #37A856",
"N  c #3EAC53",
"B  c #128E67",
"V  c #2A9360",
"C  c #329A64",
"Z  c #4B9D52",
"A  c #44A44F",
"S  c #44A453",
"D  c #4AA554",
"F  c #40AE53",
"G  c #4DAA56",
"H  c #43AF59",
"J  c #4DAC5A",
"K  c #50AB56",
"L  c #53A65A",
"P  c #53AC5C",
"I  c #46B156",
"U  c #4AB456",
"Y  c #47B258",
"T  c #48B258",
"R  c #56B25E",
"E  c #788270",
"W  c #7D857A",
"Q  c #5CAC62",
"!  c #77BD6E",
"~  c #7FBB76",
"^  c #71C86F",
"/  c #75CA70",
"(  c #7DCE75",
")  c #80867B",
"_  c #848A7F",
"`  c #84BA75",
"'  c #81C475",
"]  c #89C779",
"[  c #84C979",
"{  c #8BC97C",
"}  c #85D37A",
"|  c #88D47C",
" . c #878080",
".. c #8B8383",
"X. c #8F8888",
"o. c #938B8B",
"O. c #998E8C",
"+. c #899683",
"@. c #9D9392",
"#. c #9B9E93",
"$. c #A19795",
"%. c #A29896",
"&. c #A69C9C",
"*. c #A99F9E",
"=. c #90A18C",
"-. c #9BA195",
";. c #9EA39C",
":. c #AAA09F",
">. c #AAA99E",
",. c #ADA3A2",
"<. c #B4AAAA",
"1. c #B9AFAF",
"2. c #94D286",
"3. c None",
/* pixels */
"3.3.3.3.3.3.3.3.3.3.3.3.3.3.3.<.<.<.3.3.3.3.3.3.3.3.3.3.3.3.3.3.",
"3.3.3.3.3.3.3.3.3.3...o.*.$ @ ..o.o.*.% @ 3.3.3.3.3.3.3.3.3.3.3.",
"3.3.3.3.3.3.3.*.8 p  .o.&.= @ s  .X.$.& p o.*.% 3.3.3.3.3.3.3.3.",
"3.3.3.3.3.X s o.@.* 5 s o.$.& s ..s & $ s O.$.$ $ s 3.3.3.3.3.3.",
"3.3.3.3.$ . 5  . .& X 8 ..-.: 1 w 6 o y o.@.3 $ y o.<.3.3.3.3.3.",
"3.3.3.X.@.& % 9 ..@.- O r P D D D D E ..#.3 p s o.O.%.< 3.3.3.3.",
"3.3.. s X...@.1 W +.D G [ } } } } } [ P L : w X.&.$.8 s <.3.3.3.",
"3.3.. < 0 ..#.D P [ | ( Y N F N F N T ( } ( R =.2 & s  .o.:.3.3.",
"3.    X % 5 4 K / Y N N l c c c c l c N F T / R Z 6  ...s & 3.3.",
"3.. X s @.t ` ( I c f l N N N N N N N c c c H ( [ E  .y $ X 3.3.",
"3.. 5  .o.-.J N c f N Y ( } } } } } ( T N d c N U ~ t % % s <.3.",
"3.$ * 0 s W m l c H ( ( U F N F F N U ( ( H c c n A : y s X.*.3.",
" .s %   X ; z b Y / T F n c d d d c n N T / T n l g q  .) s 8 3.",
"0 s s & + h f Y / Y n d d d d d d d d l n H / T c d v 6 & = %.1.",
"X 5  .*.;.C I / H c d d c N F N F N c d d c H / H c j + p  .O.:.",
"  . 5 ..#.J ( T n d d c H ( } } } ( H d d c n T ( N j 7  ...a & ",
". X @ & - K ( N d d f I / T N N N U ^ H d d c N ( U x 6 s a < $ ",
"5 s  .@.2 ' U n d f H / U n d d d n U / H c d n U ( S o @ < %.,.",
"@ s ..O.>.2.N l d N ( U n d B d B d n U ( N d l N } D 6 s s o.1.",
". 8 s X.>.2.F d d F { N c B d M c B c F } F d d N } D q s _  .*.",
"  * $ * 2 { F d d N } N d d M ^ M d d F [ F d d N } S + 5 5 = 3 ",
"X $ $ % # ] F d d F } F d B d M d B d F } F d d I } G u & & $.,.",
"s  .&.$.t { F d d N ( U b d B d B d n T ( N d d N } L W s s X.:.",
"0  .o...#.{ U b d c Y / U n d d d n U / Y l d b U ( S 6 8 p $ 3 ",
"5 0 y $ O K [ N c d d H / T F N F U / H c d c F ( U z + % % $ o.",
"X * $ $ + S ( U n d d d H ( } } } [ H c d d n U ( M V W  .@.= $ ",
"  X & %.;.C I ^ Y c d d c N F N F N c B d c H / I f V ) X.o.$.= ",
"X y  .o.;.C f Y / Y n l c d d d d d c c n H / U f f m w s ....$.",
"X p s s W m l n Y / T N n l d l f l b N U / H n c N / > 8 a 5 3 ",
"@ % % & - A n l f I ( ( U F F F N N U ( ( H c l n U ` > X = $.,.",
"a a  .@.> ! U N f f M U ( [ } } } } ( U M c c N U / L 1 s s o.*.",
"0 0 ....- G | } N d f l I F F F F I N l d d N | | T k o 0 ..s = "
};
