/* XPM */
static char *result[] = {
/* columns rows colors chars-per-pixel */
"32 32 108 2 ",
"   c #594C45",
".  c #5B4F49",
"X  c #555745",
"o  c #5E524C",
"O  c #565A4C",
"+  c #5C5F4E",
"@  c #5A5E53",
"#  c #61544F",
"$  c #635651",
"%  c #655954",
"&  c #685B56",
"*  c #665E5B",
"=  c #6A5E59",
"-  c #54644B",
";  c #5F6B53",
":  c #636353",
">  c #696657",
",  c #6C615C",
"<  c #676B5C",
"1  c #6B6A5B",
"2  c #70645F",
"3  c #5D7064",
"4  c #6D6463",
"5  c #666B62",
"6  c #686F62",
"7  c #676F68",
"8  c #716763",
"9  c #736B64",
"0  c #726A6A",
"q  c #667864",
"w  c #6F7B67",
"e  c #74746A",
"r  c #78796F",
"t  c #7E7675",
"y  c #817776",
"u  c #817877",
"i  c #847C7C",
"p  c #1D965D",
"a  c #1F9859",
"s  c #3C9549",
"d  c #359B4B",
"f  c #248D5B",
"g  c #2F8D5E",
"h  c #219A57",
"j  c #27915C",
"k  c #2C955C",
"l  c #21995A",
"z  c #3C9753",
"x  c #2FA44D",
"c  c #30A54D",
"v  c #3DAC53",
"b  c #128E67",
"n  c #2F9760",
"m  c #2F9864",
"M  c #42A553",
"N  c #41AD54",
"B  c #44AF59",
"V  c #4BAD5A",
"C  c #50AA56",
"Z  c #51AC58",
"A  c #46B157",
"S  c #4AB455",
"D  c #47B159",
"F  c #48B258",
"G  c #57B35F",
"H  c #7A8176",
"J  c #7D847D",
"K  c #5EBE62",
"L  c #7DB771",
"P  c #7FC274",
"I  c #75CA70",
"U  c #7ECE76",
"Y  c #848579",
"T  c #88897E",
"R  c #87BE79",
"E  c #82C476",
"W  c #85C47B",
"Q  c #8CC37D",
"!  c #85C97B",
"~  c #8BCA7D",
"^  c #86D37A",
"/  c #878080",
"(  c #8B8383",
")  c #8D8E84",
"_  c #8F8888",
"`  c #908686",
"'  c #938B8B",
"]  c #988C8A",
"[  c #899682",
"{  c #9B908E",
"}  c #94988B",
"|  c #9D9392",
" . c #969C94",
".. c #A19795",
"X. c #A29896",
"o. c #A69C9C",
"O. c #A99F9E",
"+. c #9CA395",
"@. c #A3A59A",
"#. c #A9A39E",
"$. c #ADA3A2",
"%. c #B4AAAA",
"&. c #B9AFAF",
"*. c #8FC581",
"=. c #8ECE81",
"-. c #90CE81",
";. c #90D881",
":. c None",
/* pixels */
":.:.:.:.:.:.:.:.:.:.:.:.:.:.:.%.%.%.:.:.:.:.:.:.:.:.:.:.:.:.:.:.",
":.:.:.:.:.:.:.:.:.:.( ' O.$ o ( ' ' O.% o :.:.:.:.:.:.:.:.:.:.:.",
":.:.:.:.:.:.:.O.8 u ( ' O.= # i ( ` ..& y ' #.% :.:.:.:.:.:.:.:.",
":.:.:.:.:.o i ' | & 4 i ' | & i ( i & $ i ] ..$ $ i :.:.:.:.:.:.",
":.:.:.:.$ . 4 / ( & o 4 ( #.1 e r e % y ' | 2 $ y _ %.:.:.:.:.:.",
":.:.:._ | & % 8 ( | > : w -.~ ~ ~ R e [ @.8 t i _ { X., :.:.:.:.",
":.:.o i ( ( X.9 T [ Q E M v v N v v M ! Q ; e _ o...9 i $.:.:.:.",
":.:.. 4 0 ( @.*.! M v v h l h h l a h v v M Q +.9 = i ( ' #.:.:.",
":.    o & 4 ; M v l a l v v v v v N v l l l v F L e / ( y & :.:.",
":.  # i | 1 s x a a v S U ^ ^ ^ ^ ^ U F v l l c M q / y $ # :.:.",
":.. 4 i ]  .n a x D U U F N v v N v B U U D c l p z 5 & % i %.:.",
":.o , 0 i J k v S I D v l p p p p a l v F I F v l j - u i _ O.:.",
"/ i $ . o - M ^ U B l p p p p a p p p p l D U ^ v j 3 i i i 9 :.",
"0 i i & + s S U D p p p p v N N N v a p p p D U F c g 5 & , X.&.",
"o 4 ( O.@.K I B p b p c D U ^ ^ ^ U D x p b p A I D j @ t / ] $.",
"  . 4 ( @.=.B a p p c S I F v v v D I S x p p l D U M 5 ( ( t % ",
". . $ & > R v p p c S I B a p p a p B I S c p p v U Z 6 i u , $ ",
"4 y ( | > v a p l A I B p p p a p p l B I A l p p D E : # , X.$.",
"$ i ( ' +.v p p v U F l p a x v c p p l F U v p p v ~ e y / ' &.",
". 0 i `  .v p p v ^ v p p c S I S c p p v ^ N p a v ~ r / Y ( O.",
". * $ , : d a p N ^ v p p v I K I v p p v ^ v p p N Q > 4 4 = 8 ",
". $ $ $ X d a p N ^ v a p c S I S c p p N ^ v p a v =.Y $ & ..$.",
"y ( o...< d p p v U F l p a c v c a p l F U v p p v -.) u i _ O.",
"0 / _ ` } V p p a D I D p p p a a p p B I A a p l D W e 0 y % , ",
"4 0 t $ , E v p p c F I B l p p p l B I F c p p v U C + $ % # ] ",
"o * # $ > E D a p p c S I D N v v F I F c p p l D U B H ( | = $ ",
". o * .. .K I B l b p x D U ^ ^ ^ U B c p b l B I A k J ( ] .., ",
"o t / ' @.M S U D p p p l v v v N v l p p l B U S x j 7 i ( ( ..",
"o t / i J n v ^ U D l p p p p p p p p p l B U ^ v a f O 8 t , 2 ",
"o % % & @ f p v S I D v p p a a p p p v D I S v l p d O $ , X.$.",
"i y / ] @ f p p c A U ^ F v N v N N D U U D x p p l M 5 t i ] O.",
"0 0 ( ( O d p p a h v S ^ ;.;.;.;.;.^ S v l p p p v P : 0 ( / = "
};
