/* XPM */
static char *result[] = {
/* columns rows colors chars-per-pixel */
"32 32 116 2 ",
"   c #594C45",
".  c #5B4F49",
"X  c #515448",
"o  c #5E524C",
"O  c #55594D",
"+  c #5B5D4D",
"@  c #5B5E53",
"#  c #60544F",
"$  c #635651",
"%  c #655954",
"&  c #685C57",
"*  c #665E5B",
"=  c #6A5E59",
"-  c #51604C",
";  c #5D604F",
":  c #576757",
">  c #5E6152",
",  c #646555",
"<  c #6A6556",
"1  c #64675C",
"2  c #6C615D",
"3  c #66695D",
"4  c #696D5A",
"5  c #70655F",
"6  c #5F7262",
"7  c #5F7368",
"8  c #6D6463",
"9  c #666C62",
"0  c #686E62",
"q  c #736763",
"w  c #726866",
"e  c #726B6A",
"r  c #627462",
"t  c #6A7166",
"y  c #74756A",
"u  c #7E7675",
"i  c #777E71",
"p  c #817776",
"a  c #817877",
"s  c #847C7C",
"d  c #1C965D",
"f  c #359B4D",
"g  c #389E4D",
"h  c #28855A",
"j  c #248C5C",
"k  c #269157",
"l  c #219B57",
"z  c #23935B",
"x  c #29925A",
"c  c #20985B",
"v  c #3C9550",
"b  c #3C9C52",
"n  c #2FA54D",
"m  c #32A746",
"M  c #30A54D",
"N  c #3BA152",
"B  c #3CAB53",
"V  c #128E67",
"C  c #2C8A60",
"Z  c #2C9565",
"A  c #2D9863",
"S  c #2D9668",
"D  c #319A63",
"F  c #459D56",
"G  c #449F59",
"H  c #43A353",
"J  c #4CA156",
"K  c #40AE52",
"L  c #4FAA55",
"P  c #43AF58",
"I  c #4CAB5A",
"U  c #52AE5D",
"Y  c #46B156",
"T  c #4BB456",
"R  c #43B059",
"E  c #48B258",
"W  c #7C8377",
"Q  c #7E867A",
"!  c #7A8E7E",
"~  c #7AC171",
"^  c #75CA70",
"/  c #7DCE75",
"(  c #81877B",
")  c #85897E",
"_  c #86BC76",
"`  c #81C376",
"'  c #83C678",
"]  c #87C97C",
"[  c #86D37A",
"{  c #88D47C",
"}  c #878080",
"|  c #8B8383",
" . c #8F8888",
".. c #908786",
"X. c #938B8B",
"o. c #988C8A",
"O. c #8D9E8E",
"+. c #90958D",
"@. c #9B908E",
"#. c #9D9392",
"$. c #959B94",
"%. c #9B9E93",
"&. c #999E98",
"*. c #A19795",
"=. c #A29896",
"-. c #A69C9C",
";. c #A99F9E",
":. c #9DA195",
">. c #9AA099",
",. c #AAA09F",
"<. c #ADA3A2",
"1. c #ADACA1",
"2. c #B4AAAA",
"3. c #B9AFAF",
"4. c #8BCE81",
"5. c None",
/* pixels */
"5.5.5.5.5.5.5.5.5.5.5.5.5.5.5.2.2.2.5.5.5.5.5.5.5.5.5.5.5.5.5.5.",
"5.5.5.5.5.5.5.5.5.5.| X.,.$ o | X.X.;.% o 5.5.5.5.5.5.5.5.5.5.5.",
"5.5.5.5.5.5.5.;.q u } ..-.= # s | ..*.& p X.;.% 5.5.5.5.5.5.5.5.",
"5.5.5.5.5.o s X.#.& q ) X.*.& s | s & $ s o.*.$ $ s 5.5.5.5.5.5.",
"5.5.5.5.$ . 8 } | & o 8 ) ,.> 4 t 0 @ a X.*.2 $ p X.2.5.5.5.5.5.",
"5.5.5. .#.& % w | @.; + r G M N g v 6 | %.5 u )  .X.*.2 5.5.5.5.",
"5.5.o s  .| #.3 W ! F f z z l c c c x N F - t ..-.*.q s <.5.5.5.",
"5.5.. 8 w | :.F N x d l B B B B B K B l d k F O.4 2 s  .X.,.5.5.",
"5.    o & 8 : z l n B Y / [ [ ] [ [ / Y K M l A v 9 } | s & 5.5.",
"5.  # s #.3 h d B T / / E K K K K K Y / / Y B d j 7 s p $ o 5.5.",
"5.. 8 s X.$.D B / / T B c d d d d d d B Y [ [ P c C 9 % % s 2.5.",
"5.o 2 e s ) U ^ T B d d V d d d d d V d d B T ^ R k @ p s  .,.5.",
"} s %   o 4 ~ T M d V d c B K B K B c d V d M Y ^ I r s s s q 5.",
"e s s & < _ T n c d d B E / [ [ [ / P B c d c M T / J 9 & 2 =.3.",
"o 8 | -.1.4.B d d M Y / / E K K K E / / Y M d d B / L % p ) X.<.",
"  . 8 | :.I d V c Y ^ T B d d d d c B Y ^ Y c V c Y ' y } | a % ",
". o $ & + f d d B / T M d V d d d V d n T / B d d B ` y s s = $ ",
"8 u | #.1 d V d Y / B d d c B K B Z d d B / E d V d H + $ = =.<.",
"$ s | X.&.S d B / Y d V c R / [ / B d V l T / B d d M 0 s s X.3.",
"o 8 s  .&.S d Y [ K d d B / T K T / B d d B [ B d d b 0 s } | ;.",
"  & o 8 @ C d B [ K d d B [ Y m Y [ B d d Y [ Y d z f > 8 8 = 8 ",
"o $ $ % X j d B [ B d d B / T K T / B d d B [ B d d N i % & *.<.",
"s | -.*.3 j d B / Y c V d P / { / R d V d T / B d d N Q s s ..<.",
"e s  . .+.Z V c Y / B d d c B K B d d d B / Y c V d H 0 e u % = ",
"8 e u $ @ f d d B / T n d V d d d V d M T / B d d B ` , $ & # o.",
"o * $ $ ; H d V c Y ^ T B c d d d c B Y ^ P d V l Y ] | | @.2 $ ",
"  o & *.,.4.B d d M Y / / E B B B E / / T n d d B / U ( | @.#.2 ",
"o u } X.1.4.Y n c d d B Y / { [ [ / Y B z d l n T / K 0 s | | #.",
"o u s s ) U ^ T n d V d d B Y B Y B d d V d M T ^ E k O w u 2 5 ",
"# % % & ; z Y ^ T B d d V d d d d d V d d B T ^ P z j O o 2 =.<.",
"s u | o.+ k d R / / Y B c d d z d d d B Y [ / P c c f 3 p s X.<.",
"e e | | + f d c Y T [ [ B m M m M M B [ { T K c d n g + e } ) = "
};
