/* XPM */
static char *result[] = {
/* columns rows colors chars-per-pixel */
"32 32 123 2 ",
"   c #594C45",
".  c #5B4F49",
"X  c #515448",
"o  c #5E524C",
"O  c #56594C",
"+  c #5B5E4E",
"@  c #545951",
"#  c #5A5E52",
"$  c #60544F",
"%  c #635651",
"&  c #655954",
"*  c #685C57",
"=  c #665E5B",
"-  c #695E59",
";  c #54634C",
":  c #5D604F",
">  c #5E6154",
",  c #596955",
"<  c #63665C",
"1  c #6C615D",
"2  c #67685E",
"3  c #696B5C",
"4  c #70645F",
"5  c #5F7262",
"6  c #6D6463",
"7  c #656B63",
"8  c #686F63",
"9  c #676F69",
"0  c #6A6F68",
"q  c #736763",
"w  c #726866",
"e  c #726B6A",
"r  c #627563",
"t  c #717166",
"y  c #74776C",
"u  c #777F6C",
"i  c #7E7674",
"p  c #747B74",
"a  c #807776",
"s  c #817877",
"d  c #847C7C",
"f  c #1C955D",
"g  c #1F985C",
"h  c #3C954A",
"j  c #369B4C",
"k  c #389E4C",
"l  c #278F56",
"z  c #248E5C",
"x  c #2E8B5C",
"c  c #308D5E",
"v  c #289057",
"b  c #25925C",
"n  c #2B955C",
"m  c #21995B",
"M  c #369C50",
"N  c #2FA44E",
"B  c #30A54D",
"V  c #38A04E",
"C  c #32A84B",
"Z  c #3DA253",
"A  c #3DAC53",
"S  c #3EA558",
"D  c #0E8B6A",
"F  c #198465",
"G  c #128E67",
"H  c #118C69",
"J  c #189261",
"K  c #348F65",
"L  c #299364",
"P  c #269A67",
"I  c #2B9B65",
"U  c #359263",
"Y  c #3A9664",
"T  c #309B62",
"R  c #34A269",
"E  c #419B4F",
"W  c #43A44E",
"Q  c #40AF4F",
"!  c #43A553",
"~  c #40AE53",
"^  c #4DA955",
"/  c #45AE59",
"(  c #4CAD5D",
")  c #46B157",
"_  c #4AB455",
"`  c #45B059",
"'  c #48B258",
"]  c #57B35F",
"[  c #7B8276",
"{  c #7A827B",
"}  c #7A8D7E",
"|  c #70C675",
" . c #7CC374",
".. c #75CA70",
"X. c #7DCE75",
"o. c #7ACB79",
"O. c #80877C",
"+. c #80BC76",
"@. c #85D27B",
"#. c #858280",
"$. c #8B8383",
"%. c #8B8C81",
"&. c #8F8888",
"*. c #908786",
"=. c #938B8B",
"-. c #9A8E8C",
";. c #90958D",
":. c #8A9C90",
">. c #9D9392",
",. c #969A94",
"<. c #9A9E96",
"1. c #999F99",
"2. c #A19795",
"3. c #A29896",
"4. c #A69C9C",
"5. c #A99F9E",
"6. c #A0A599",
"7. c #AAA09F",
"8. c #A4A99D",
"9. c #ADA3A2",
"0. c #B4AAAA",
"q. c #B9AFAF",
"w. c None",
/* pixels */
"w.w.w.w.w.w.w.w.w.w.w.w.w.w.w.0.0.0.w.w.w.w.w.w.w.w.w.w.w.w.w.w.",
"w.w.w.w.w.w.w.w.w.w.$.=.5.% $ $.=.=.5.& o w.w.w.w.w.w.w.w.w.w.w.",
"w.w.w.w.w.w.w.5.w a #.=.4.1 o d $.*.2.* a =.5.& w.w.w.w.w.w.w.w.",
"w.w.w.w.w.o d =.>.- 6 d =.2.* d $.d * % d =.2.% % d w.w.w.w.w.w.",
"w.w.w.w.% . 6 #.$.* o 6 $.,.< 7 9 7 % d =.>.4 % a =.0.w.w.w.w.w.",
"w.w.w.&.>.* & w $.>.# O r U l z b x 5 %.,.6 i d =.=.2.1 w.w.w.w.",
"w.w.o d $.$.2.< [ } c v ! A Q A A ~ ! n U ; 9 &.4.2.q d 9.w.w.w.",
"w.w.. 6 e $.<.K L ^ ~ ' X.@.@.@.@.@.X.' A W Y :.2 * d &.=.7.w.w.",
"w.    o & 6 , v ` X.@.X.' ~ A ~ ~ A ' ..@.X.' n x 7 O.*.s * w.w.",
"w.  $ d >.3 h ) .._ A A m f g f f f m A ) _ ..) V r d a % o w.w.",
"w.. 6 d =.<.] ..) N m g f f g g f g f g g N ) .._ E 8 & % d 0.w.",
"w.o 1 e d %. ./ m f f g m A A ~ ~ A g f g g g / ..^ > a d =.5.w.",
"#.d & . . ; ! m f f m A ' X.@.@.@.X.' A m g f g `  .[ d d d q w.",
"e d d * # h m J m N ) X.X.' A A ~ ' X.X.) N g f g ^  .t * 1 3.q.",
"o 6 $.4.6.! J m N _ ..) A m f g f m A / ..) N g g N W > s d =.9.",
"  . 6 $.<.T J m ) ../ g f f f g f f f m / ..) g g g k 8 $.$.a * ",
". . % * # z f A X.' f G f m A ~ A m f G g ' X.A f f M 8 d i 1 % ",
"6 a $.>.< z g ' o.I G f B ) X.@.X.) B J G I o.' m f z @ % 1 3.9.",
"% d *.=.1.I A X./ f f f ) ..) A ' ..) m J f / o.A g z 7 d d =.q.",
". w d $.<.I A @.I D f A X.' g f m ' X.A J G I @.A f z 9 d #.$.4.",
". = % 1 > z A @.I D f A @.A g G f A @.~ g D P @.A f z # 6 6 - q ",
". % % % X z A @.I D J A X.' m g m ' o.A f D I @./ f L p & - 2.9.",
"s $.4.2.< z A o.R G J g ) .._ A ' ..) m G G R o.A g L { d d &.5.",
"e #.&.*.;.I g ' o.P G J B ) X.@.X.) B f G P o./ g f z 7 w i & 1 ",
"6 e i % # z J S X.R H H J m A ` A m J D D R X.Z g f j : o * $ =.",
"o = $ % # z J m / | T H H J J J f J D D R | ) m f g Z [ $.>.1 % ",
"  $ = 3.6.S m f B _ | R P H D H D G P R | ) B f f N ^ [ *.-.>.1 ",
"o i d =.8.( m f m B / o.o.R P I P R o.X.) B g f g )  .y d O.$.2.",
"o i d d %. ./ m f f m A ' o.@.@.@.o.' A g g f g ) ..^ + w a 4 4 ",
"$ & & & + ^ ../ m f f f m A A ~ A A m f f g g / .._ h O $ - 2.9.",
"d i $.-.: j _ ../ C m f J f m f f f J f m B ) .._ N z 7 s d =.7.",
"e e $.$.+ v C _ X.Q C B f f f J f J m B C Q X._ C g F @ e $.d - "
};
