/* XPM */
static char *result[] = {
/* columns rows colors chars-per-pixel */
"32 32 112 2 ",
"   c #594C45",
".  c #5B4F49",
"X  c #545645",
"o  c #5E524C",
"O  c #565A4F",
"+  c #5C5E4E",
"@  c #5A5E52",
"#  c #60544F",
"$  c #635651",
"%  c #655954",
"&  c #685C57",
"*  c #665E5B",
"=  c #6A5E59",
"-  c #506050",
";  c #5F6252",
":  c #646353",
">  c #606951",
",  c #6D615D",
"<  c #666A5B",
"1  c #696A5B",
"2  c #70645F",
"3  c #67715A",
"4  c #6D6463",
"5  c #656C63",
"6  c #696D63",
"7  c #736763",
"8  c #726866",
"9  c #726B6A",
"0  c #627560",
"q  c #6B7266",
"w  c #6E7B67",
"e  c #6F7B68",
"r  c #727164",
"t  c #7E7675",
"y  c #747B74",
"u  c #807776",
"i  c #807877",
"p  c #847C7C",
"a  c #1D965C",
"s  c #1F985A",
"d  c #349D4F",
"f  c #389D4B",
"g  c #27855C",
"h  c #248E5C",
"j  c #299057",
"k  c #22955D",
"l  c #289158",
"z  c #21995B",
"x  c #3C9753",
"c  c #2FA54D",
"v  c #30A54D",
"b  c #3AA053",
"n  c #3DAC53",
"m  c #0E8A6B",
"M  c #128E67",
"N  c #279163",
"B  c #2B9563",
"V  c #2F9865",
"C  c #2F9868",
"Z  c #4B9D52",
"A  c #44A44F",
"S  c #43A453",
"D  c #4AA454",
"F  c #40AE53",
"G  c #4DA955",
"H  c #43AF59",
"J  c #4EAC5A",
"K  c #50AC57",
"L  c #53A65A",
"P  c #52AD5B",
"I  c #46B157",
"U  c #4BB456",
"Y  c #47B258",
"T  c #48B258",
"R  c #54B15D",
"E  c #788270",
"W  c #7C837A",
"Q  c #5CAC62",
"!  c #77BD6E",
"~  c #7FBB76",
"^  c #75CA70",
"/  c #7DCE75",
"(  c #80877B",
")  c #848A7F",
"_  c #84BA75",
"`  c #81C575",
"'  c #84C979",
"]  c #86D37A",
"[  c #88D47C",
"{  c #878080",
"}  c #8B8383",
"|  c #8F8888",
" . c #908786",
".. c #938B8B",
"X. c #998E8C",
"o. c #899683",
"O. c #92978B",
"+. c #9D9392",
"@. c #9A9E93",
"#. c #999F98",
"$. c #A19795",
"%. c #A29896",
"&. c #A69C9C",
"*. c #A99F9E",
"=. c #90A18C",
"-. c #9CA195",
";. c #9EA39C",
":. c #AAA09F",
">. c #ADA3A2",
",. c #B4AAAA",
"<. c #B9AFAF",
"1. c None",
/* pixels */
"1.1.1.1.1.1.1.1.1.1.1.1.1.1.1.,.,.,.1.1.1.1.1.1.1.1.1.1.1.1.1.1.",
"1.1.1.1.1.1.1.1.1.1.} ..*.$ # { ....*.% # 1.1.1.1.1.1.1.1.1.1.1.",
"1.1.1.1.1.1.1.*.7 i { ..*.= # p }  .$.& u  .*.% 1.1.1.1.1.1.1.1.",
"1.1.1.1.1.o p ..+.* 4 p ..$.& p { p & $ ( ..$.$ $ p 1.1.1.1.1.1.",
"1.1.1.1.$ . 4 { } & o 7 } @.> < q 6 @ i ..$.2 $ u | ,.1.1.1.1.1.",
"1.1.1.| +.& % 8 } +.+ + e P D D D D w { @.2 t p ..X.$.2 1.1.1.1.",
"1.1.o p | } +.< W o.D G ' ] ] ] ] ] ' R L > 6 ..&.$.8 p ,.1.1.1.",
"1.1.. , 9 } @.D P ' [ / Y n F F n F T / ] ` Q =.1 = i { ..>.1.1.",
"1.    o & 4 3 J ^ T n n z a a a a a z n n T ^ R Z 6 { } p & 1.1.",
"1.  $ p +.r _ / H z a a a a a a a a a a a z H / ' E ( t $ o 1.1.",
"1.. 4 p ..-.J n z a a s v F n F n n v z a a z n T _ r % $ p ,.1.",
"1.o , 9 p W b a M a v n T / ] ] ] / U n v a m a v A ; t p ..*.1.",
"{ p $ . . - h a a n T / / T F n F T / / T n z a a d 0 p p p 7 1.",
"9 p p & @ g M a H / / T n z a a a z n T / / H z M z x 5 & , %.<.",
"o 4 } *.;.B a n / U n z a a a a a a a z n T / n a a g @ u ( ..>.",
"  . 4 } #.C c U / n a a z n n F n n z a a n / U v a N 5 } } i % ",
". . $ & ; l n / T z z c Y / ] ' ] / H z a z H / n z h 5 p p = $ ",
"4 p { +.< f U / n s v U ^ U n n n U ^ H z a n / T v h O $ , %.>.",
"$ p | ..-.J / U s a n / U c s a a v U / n a z T / n l 5 p { ..<.",
". 4 p } -.U ] n a a F ] n a m m m a F ] F a a F ] F h 5 p { { *.",
". & $ 4 : A ] F a a F ] F s m m m a F ] n a a n ] F h @ 4 4 = 4 ",
"o $ $ $ X S ] F a a F ] n z m m m a F ] F a a n ] F l y % & $.>.",
"p { &.+.< A / T z a n / U v a a a z T / n a z Y / n B W p p  .*.",
"9 { | | O.S T / n a z F ^ U n F n T ^ I z a n / U v h 5 9 t % , ",
"4 9 t $ @ l n / T z a z H / ] ] ] / U v a z T / n z h O @ % $ X.",
". * $ $ @ g v U / n a a v F n F F n v z a n / T v a N W } +.= # ",
"  o & $.;.B s n / U n z z a a a a a a z n U / n s a N W } X.+., ",
"# u { ..;.C M s H / / T n a a a a z n T / / H a M s S q { }  .+.",
"o u p p W b s a a n T / / T n n F T / / T n a a a n ` : 4 u , , ",
"o % % % ; A c a M a v n U / ] ] ] / U n c a M a v U ` % # = %.>.",
"p u { +.: ! U n a a a z v n n S n n v z a a a n U ^ G 5 u { X.>.",
"9 9 } } + J [ ] n a a a a a s s s a a a a a n ] [ I g O 9 { { = "
};
