/* XPM */
static char *result[] = {
/* columns rows colors chars-per-pixel */
"32 32 74 1 ",
"  c #050701",
". c #050801",
"X c #070B01",
"o c #070A02",
"O c #090E01",
"+ c #0A0E03",
"@ c #0B1101",
"# c #0E1307",
"$ c #111902",
"% c #141E02",
"& c #151F02",
"* c #141F03",
"= c #141B07",
"- c #151E04",
"; c #162203",
": c #182403",
"> c #1E2D04",
", c #223304",
"< c #233504",
"1 c #2A3F05",
"2 c #25340D",
"3 c #26350C",
"4 c #2C3C10",
"5 c #3A5607",
"6 c #3C5907",
"7 c #3D5B0A",
"8 c #3F5F08",
"9 c #37491A",
"0 c #436508",
"q c #486D09",
"w c #527B0A",
"e c #5A7E20",
"r c #5D8C0B",
"t c #65960C",
"y c #65980C",
"u c #689911",
"i c #6BA00D",
"p c #6BA10D",
"a c #72AB0D",
"s c #77B30E",
"d c #7CBA0E",
"f c #618820",
"g c #78A332",
"h c #7B9550",
"j c #80C10F",
"k c #81C10F",
"l c #83C40F",
"z c #83C50F",
"x c #84C60F",
"c c #83C510",
"v c #84C611",
"b c #86C812",
"n c #87CA14",
"m c #87CA15",
"M c #88CA14",
"N c #96D924",
"B c #98DB26",
"V c #98DB29",
"C c #92CE30",
"Z c #96D035",
"A c #A0E42F",
"S c #A2E731",
"D c #A5EA34",
"F c #AFEE48",
"G c #B0EE4B",
"H c #B2F348",
"J c #B4F44B",
"K c #B6F354",
"L c #BFEA77",
"P c #CFEC9E",
"I c #D4FA95",
"U c #D6FA9B",
"Y c #DEFCAE",
"T c None",
/* pixels */
"TTTTTTTTTTTTTTTTTTTTTTTTTTTTTTTT",
"TTTTTTTTTTTTTTTTTTTTTTTTTTTTTTTT",
"TTTTTTTTTTTTTT=23-OTTTTTTTTTTTTT",
"TTTTTTTTTTTT#9gZCuq;TTTTTTTTTTTT",
"TTTTTTTTTTTohPIHSMzp*TTTTTTTTTTT",
"TTTTTTTTTTT4LYUFBvzl0XTTTTTTTTTT",
"TTTTTTTTTTTeJKGVmzzzy&TTTTTTTTTT",
"TTTTTTTTTT+fDANmczzzi:TTTTTTTTTT",
"TTTTTTTTTTT7nbczzzzzr$TTTTTTTTTT",
"TTTTTTTTTTT@tkzzzzzs<TTTTTTTTTTT",
"TTTTTTTTTTTT,wdxxja5 TTTTTTTTTTT",
"TTTTTTTTTTTTT.>681%TTTTTTTTTTTTT",
"TTTTTTTTTTTTTTTTTTTTTTTTTTTTTTTT",
"TTTTTTTTTTTTTTTTTTTTTTTTTTTTTTTT",
"TTTTTTTTTTTTTTTTTTTTTTTTTTTTTTTT",
"TTTTTTTTTTTTTTTTTTTTTTTTTTTTTTTT",
"TTTTTTTTTTTTTTTTTTTTTTTTTTTTTTTT",
"TTTTTTTTTTTTTTTTTTTTTTTTTTTTTTTT",
"TTTTTTTTTTTTTTTTTTTTTTTTTTTTTTTT",
"TTTTTTTTTTTTTTTTTTTTTTTTTTTTTTTT",
"TTTTTTTTTTTTTTTTTTTTTTTTTTTTTTTT",
"TTTTTTTTTTTTTTTTTTTTTTTTTTTTTTTT",
"TTTTTTTTTTTTTTTTTTTTTTTTTTTTTTTT",
"TTTTTTTTTTTTTTTTTTTTTTTTTTTTTTTT",
"TTTTTTTTTTTTTTTTTTTTTTTTTTTTTTTT",
"TTTTTTTTTTTTTTTTTTTTTTTTTTTTTTTT",
"TTTTTTTTTTTTTTTTTTTTTTTTTTTTTTTT",
"TTTTTTTTTTTTTTTTTTTTTTTTTTTTTTTT",
"TTTTTTTTTTTTTTTTTTTTTTTTTTTTTTTT",
"TTTTTTTTTTTTTTTTTTTTTTTTTTTTTTTT",
"TTTTTTTTTTTTTTTTTTTTTTTTTTTTTTTT",
"TTTTTTTTTTTTTTTTTTTTTTTTTTTTTTTT"
};