/* XPM */
static char *result[] = {
/* columns rows colors chars-per-pixel */
"32 32 32 1 ",
"  c black",
". c #36260A",
"X c #2B2B21",
"o c #382020",
"O c #212938",
"+ c #303430",
"@ c #5C3812",
"# c #753E2D",
"$ c #615433",
"% c #28446C",
"& c #504C4C",
"* c #644C4C",
"= c #44506B",
"- c #8F4D14",
"; c #B3751A",
": c #A18C54",
"> c #D48C52",
", c #D6C47A",
"< c #707CA3",
"1 c #7C8383",
"2 c #9C8282",
"3 c gray58",
"4 c #A3ABAF",
"5 c #EBB385",
"6 c #C7B8BA",
"7 c #FFD9AD",
"8 c #F0E6BF",
"9 c #A3ABC7",
"0 c LightGray",
"q c #DBE6EB",
"w c #F7E0E6",
"e c None",
/* pixels */
"eeeeeeeeeeeeeeeeeeeeeeeeeeeeeeee",
"eeeeeeeeeeeoo**2222***eeeeeeeeee",
"eeeeeeeee**o*266666622**eeeeeeee",
"eeeeeee**22**66662266622*eeeeeee",
"eeeee*26ww62*26w66w2*6622oeeeeee",
"eeeeo6w626*2oo26w26w2*262*eeeeee",
"eeeeeoo*6wo o*o26o2w2o*26*oeeeee",
"eeeeeeo2w2 o ooo2o*6*oo*2*oeeeee",
"eeeeeeo2w* &144&o&o2o++*2*oeeeee",
"eeeeeeo26o+&144q4&&o&&+o**oeeeee",
"eeeeee *2o++&&&&&&&&&++o*o eeeee",
"eeeeee o2o#226#>>>#622# *o eeeee",
"eeeeeeeo2 ***2277722*** *oeeeeee",
"eeeeee #* #0  o777o  3#>*# eeeee",
"eeeee$ >o>>0  #555#  0>>o> Xeeee",
"eeeX$X$ o>50%%55555%%55>o XXXXee",
"eeX$$XXX #5775>222>5775# XXX$$Xe",
"eeX:,8,$X >5>*66266*>5> X$:,,: e",
"ee $:,88,$X#o662o266o#X$,,,,:$ e",
"eee X$::,,:$*62o*o26*$:,,:$XX ee",
"eeeX$::$$:::o2*222*2o:::$$$$$Xee",
"eee$O$,,:$$XXo26262oXX$$:$$XO$ee",
"eeXO=O  $,,::$o266o$:::$$X OOOee",
"eeX <=OO. X$$X *2* XXXX .O=99=$e",
"eeO= O@-@ OOOOOOOOOOO @.-O= O=$e",
"eeO<=@.@-@. O==   ==.-;-.-<99< e",
"eeO=O@.-;-.  O OOO O.-;;.-O=== e",
"ee$$ . @-@.=<<O<9<O<.@-@ .X   $e",
"ee$:$  .. <=== OOO =< ..  XX$,$e",
"ee$,:XXXX  <<O22*  OOO      $,Xe",
"ee$,$   eee o*ooo*   eeeee  X:Xe",
"eee  eeeeeeee *2* eeeeeeeeee  ee"
};
