/* XPM */
static char *result[] = {
/* columns rows colors chars-per-pixel */
"32 32 32 1 ",
"  c black",
". c gray8",
"X c #36260A",
"o c #2B2B21",
"O c #382020",
"+ c #212938",
"@ c #303430",
"# c #5C3812",
"$ c #753E2D",
"% c #615433",
"& c #28446C",
"* c #504C4C",
"= c #644C4C",
"- c #44506B",
"; c #8F4D14",
": c #B3751A",
"> c #A18C54",
", c #D48C52",
"< c #D6C47A",
"1 c #707CA3",
"2 c #7C8383",
"3 c #9C8282",
"4 c gray58",
"5 c #A3ABAF",
"6 c #EBB385",
"7 c #C7B8BA",
"8 c #FFD9AD",
"9 c #A3ABC7",
"0 c LightGray",
"q c #DBE6EB",
"w c #F7E0E6",
"e c None",
/* pixels */
"eeeeeeeeeeeeeeeeeeeeeeeeeeeeeeee",
"eeeeeeeeeeeOO====33===Oeeeeeeeee",
"eeeeeeeeeO==3=337www733==eeeeeee",
"eeeeeeeeO=377=37777ww7773=eeeeee",
"eeeeeeeeO37737==3w737w=373=eeeee",
"eeeeeeeO=333773OO7w7=77=37=eeeee",
"eeeeeeeO3333w73OO=w3O=7=O33=eeee",
"eeeeeeeO33=3w7=O*O7=*2O=@=7=eeee",
"eeeeeee.=O@373*25q3O*55O@O7Oeeee",
"eeeeeee.@*@373*252*@@@@@@@3Oeeee",
"eeeeeee@**@=7=O*OO337$,,$ = eeee",
"eeeeeee@@@@O3=O$$===3388$ Oeeeee",
"eeeeeeeOOO=O==$,,$4  O88 e eeeee",
"eeeeo%%.===OO=$,6,0  $66 eeeeeee",
"eeeo>%o.O==.6O,6666&&6,, eeeeeee",
"eeeo>%%o.OOO..,68886,333=eeeeeee",
"eeeo>>>%%.OOO.,6686=7737=eeeeeee",
"eeeo>><<<>>%oo$,,,=773O3=eeeeeee",
"eeeeo%>><<<<<>oo$,=73O=  eeeeeee",
"eeeo%o%%%%%%><<>oo$3=33= eeeeeee",
"eeeo>>>>>>>>%%%<<%%O373=eeeeeeee",
"eee%>>>>%%%%>>>%%>>%O77 eeeeeeee",
"eeo%%%%%ooo--oo+XXX%O== eeeeeeee",
"eeo>%ooo +-191XX#:;X%OOeeeeeeeee",
"eo%%><>o +-1++;X;::Xoooeeeeeeeee",
"eo>%<<%o  ++-+#;#;;X- oeeeeeeeee",
"o%>><>% + +-+ X#;#X1+ eeeeeeeeee",
"o%%<<>o -+ +  -+XX++ eeeeeeeeeee",
"o%%<<%o +==  ++--++- eeeeeeeeeee",
"eo%>>%   OO=33=   OOO eeeeeeeeee",
"eeoo%oee O=OOOOee OO= eeeeeeeeee",
"eeeeooeee =33=Oeeeeeeeeeeeeeeeee"
};
