/* XPM */
static char *result[] = {
/* columns rows colors chars-per-pixel */
"32 32 16 1 ",
"  c black",
". c #2B2B21",
"X c #382020",
"o c #303430",
"O c #615433",
"+ c #504C4C",
"@ c #644C4C",
"# c #A18C54",
"$ c #D6C47A",
"% c #7C8383",
"& c #9C8282",
"* c #A3ABAF",
"= c #C7B8BA",
"- c #DBE6EB",
"; c #F7E0E6",
": c None",
/* pixels */
":::::::::::@@@&&&&@@XX::::::::::",
":::::::::@@&======&&@XX@::::::::",
"::::::::@&=======&@@@@&&@@::::::",
":::::::X&=========&&@&===&@:::::",
":::::::@==&========@&&&=&=&@::::",
"::::::X&=&&=;=======;=&;=@@&X:::",
"::::::X&=&&;;=&;=;=&;;=&;&X@X:::",
"::::::X&&@&=;;&;=;;&=;=&;&X:::::",
"::::::X@&@@&==@=&==@&;=@=&X:::::",
":::::: X@o%X@&X&@=&X@&=o&@ :::::",
":::::: X@o%%**--*+++o@&o&X :::::",
":::::::X@@X%%%--*++%+o@X@X::::::",
":::::: X@@@@@@X@@X@@@XXX@X :::::",
"::::.. X@X@&@@X&@@&&@X@XXX ..:::",
":::.OO. XX@&&&@&&@&&@X@XX .OO.::",
":::O#OO. X@&&@@&@X&@XXXX .OO#O::",
":::.$$$$#OX@@XX@XX@@XXXO#####.::",
"::: O#$$$$##O.......O##$$##OO ::",
"::::..O#$$$$$$$$$$$$$$$##OO..:::",
":::..O##OO##$$$$$$$$$##O..OO..::",
":::.O.#$$$#######OOO...OOOO...::",
":::O##OO#$$$$$$$$$$$$$#OO..O...:",
"::.##$##OO#$$$$$$$$$#OO....OO..:",
"::.$$$$###$#OOOOOOOOOOOOO..#OO.:",
":.O$$$$##$$$$$$#OOO#OO##OO.##O..",
":.#$$$$##$$$#$$$#O#$OO###OO##OO.",
":.#$$$$#$$$$#$$$##$$#O###OOO##O.",
":.#$$$$#$$$##$$$$#$$######OO##O.",
"::.#$$#$$$$##$$$$$$$O#####OOOO.:",
":::..##$$$$###$$$$$$O####OOO..::",
":::::..O#$$###$$$$$#OOOO... ::::",
"::::::::  ...OOOOOO...   :::::::"
};
