/* XPM */
static char *result[] = {
/* columns rows colors chars-per-pixel */
"32 32 31 1 ",
"  c black",
". c gray8",
"X c #36260A",
"o c #2B2B21",
"O c #382020",
"+ c #212938",
"@ c #303430",
"# c #5C3812",
"$ c #753E2D",
"% c #615433",
"& c #28446C",
"* c #504C4C",
"= c #644C4C",
"- c #44506B",
"; c #8F4D14",
": c #B3751A",
"> c #A18C54",
", c #D48C52",
"< c #D6C47A",
"1 c #707CA3",
"2 c #9C8282",
"3 c gray58",
"4 c #A3ABAF",
"5 c #EBB385",
"6 c #C7B8BA",
"7 c #FFD9AD",
"8 c #A3ABC7",
"9 c LightGray",
"0 c #DBE6EB",
"q c #F7E0E6",
"w c None",
/* pixels */
"wwwwwwwwwwwwwwwwwwwwwwwwwwwwwwww",
"wwwwwwwwwO===2222==OOwwwwwwwwwww",
"wwwwwww==22666666662=OOwwwwwwwww",
"wwwww==266666666666662=Owwwwwwww",
"wwwwwO26266q26q66622662Owwwwwwww",
"wwww=2O66=26q=6q6662222=Owwwwwww",
"www=26OO26=262=6q262222=Owwwwwww",
"www=62*4O2O=26O=q6=62=2=Owwwwwww",
"www=6=*40O4*=2OO=66=2=O=.wwwwwww",
"wwwO2O@*****@=O@O22OOOO=.wwwwwww",
"wwww=O $,,$622$**=2O@@**@wwwwwww",
"wwwwOw $7722===$$O2OO@**@wwwwwww",
"wwwwwww 77O  3$,,$=.O=OOOwwwwwww",
"wwwwwww 55$  9,5,,O$O===.%%owwww",
"wwwwwww ,,5&&5555,.5.==O.o%>owww",
"wwwwwww=222,57775,..OOO.o%%>owww",
"wwwwwww=6266=5755,.OOO.%%>>>owww",
"wwwwwww=2O266=,,,$oo%>><<<>>owww",
"wwwwwww  =O26=,$oo><<<<<>>%owwww",
"wwwwwww =22=2$oo><<>%%%%%%o%owww",
"wwwwwwww=262O%%<<%%%>>>>>>>>owww",
"wwwwwwww 66O%>>%%>>>%%%%>>>>%www",
"wwwwwwww ==O%XXX+oo--ooo%%%%%oww",
"wwwwwwwwwOO%X;:#XX181-+ ooo%>oww",
"wwwwwwwwwoooX::;X;++1-+ o><>%%ow",
"wwwwwwwwwo -X;;#;#+-++  o%<<%>ow",
"wwwwwwwwww +1X#;#X +-+ + %><>>%o",
"wwwwwwwwwww ++XX+-  + +- o><<%%o",
"wwwwwwwwwww -++--++  ==+ o%<<%%o",
"wwwwwwwwww OOO   =22=OO   %>>%ow",
"wwwwwwwwww =OO wwOOOO=O wwo%ooww",
"wwwwwwwwwwwwwwwwwO=22= wwwoowwww"
};
