/* XPM */
static char *result[] = {
/* columns rows colors chars-per-pixel */
"32 32 177 2 ",
"   c #182E17",
".  c #172E18",
"X  c #192E18",
"o  c #172D17",
"O  c #1C3218",
"+  c #20371A",
"@  c #233D1D",
"#  c #2D3C24",
"$  c #1E411C",
"%  c #2B461E",
"&  c #344A1D",
"*  c #31531E",
"=  c #1D5529",
"-  c #254521",
";  c #224A23",
":  c #2B4D22",
">  c #2A5124",
",  c #215B2B",
"<  c #2B5D29",
"1  c #335424",
"2  c #3A5420",
"3  c #3C5C25",
"4  c #325E28",
"5  c #1F622F",
"6  c #25602E",
"7  c #29622C",
"8  c #26692F",
"9  c #35632B",
"0  c #39682C",
"q  c #246D32",
"w  c #2B6B32",
"e  c #2A7D36",
"r  c #237C3A",
"t  c #267234",
"y  c #327432",
"u  c #327932",
"i  c #41551E",
"p  c #455A1F",
"a  c #425623",
"s  c #405D23",
"d  c #425F3C",
"f  c #446425",
"g  c #4D6522",
"h  c #406128",
"j  c #4A6B28",
"k  c #556C25",
"l  c #44722F",
"z  c #517127",
"x  c #5D7727",
"c  c #527629",
"v  c #567B2B",
"b  c #5D7F29",
"n  c #437D35",
"m  c #4C7B30",
"M  c #527731",
"N  c #5E7432",
"B  c #617B26",
"V  c #556D56",
"C  c #5C7653",
"Z  c #26823C",
"A  c #2B843A",
"S  c #2A8B3E",
"D  c #348236",
"F  c #35863A",
"G  c #3D8339",
"H  c #34893A",
"J  c #2E903F",
"K  c #3A933D",
"L  c #3D9A3F",
"P  c #35913D",
"I  c #5F8128",
"U  c #428336",
"Y  c #418C3A",
"T  c #558033",
"R  c #43923B",
"E  c #4C943C",
"W  c #439A3D",
"Q  c #4D9A3E",
"!  c #5E973A",
"~  c #519B3B",
"^  c #618428",
"/  c #618B2C",
"(  c #74912B",
")  c #7C9A2E",
"_  c #6D9831",
"`  c #6B9530",
"'  c #729B32",
"]  c #4DA23F",
"[  c #58A83F",
"{  c #6DA63C",
"}  c #79A634",
"|  c #7FAC36",
" . c #74A23A",
".. c #268E42",
"X. c #269244",
"o. c #2B9242",
"O. c #2F9A44",
"+. c #329440",
"@. c #389640",
"#. c #359E43",
"$. c #3C9C41",
"%. c #2FA046",
"&. c #2FA849",
"*. c #34A546",
"=. c #3DA443",
"-. c #3EAC47",
";. c #30A748",
":. c #32AA49",
">. c #39AE49",
",. c #479C44",
"<. c #79965E",
"1. c #45A642",
"2. c #4BA444",
"3. c #42AB45",
"4. c #4CA548",
"5. c #4FAC48",
"6. c #5AA342",
"7. c #55A944",
"8. c #5AAC45",
"9. c #45B549",
"0. c #4AB748",
"q. c #4CB949",
"w. c #49B247",
"e. c #5CBB47",
"r. c #52B948",
"t. c #62AE45",
"y. c #6BAE42",
"u. c #66B145",
"i. c #6CB244",
"p. c #62BC46",
"a. c #74B543",
"s. c #7CB640",
"d. c #7BB942",
"f. c #80A231",
"g. c #83A836",
"h. c #8FB431",
"j. c #8FB936",
"k. c #87B839",
"l. c #8BBD3E",
"z. c #95BE3B",
"x. c #96B936",
"c. c #8EC13E",
"v. c #9BC135",
"b. c #94C43D",
"n. c #99C63C",
"m. c #9ECB3C",
"M. c #95C93D",
"N. c #A2C736",
"B. c #A4CA36",
"V. c #AACF37",
"C. c #A4CC3A",
"Z. c #AACF38",
"A. c #AAD037",
"S. c #ACD138",
"D. c #85A042",
"F. c #83BC41",
"G. c #9ABE45",
"H. c #94AA59",
"J. c #94B05E",
"K. c #88C040",
"L. c #ABCE4E",
"P. c #ADD043",
"I. c #A7D144",
"U. c #B0D347",
"Y. c #B2D34B",
"T. c #B4D452",
"R. c #BBD861",
"E. c #B4CA75",
"W. c #C3DD74",
"Q. c #CAE27F",
"!. c #C0D585",
"~. c #CCE286",
"^. c #D5E79B",
"/. c #DFECB9",
"(. c #E3EEC0",
"). c #F4F9E5",
"_. c None",
/* pixels */
"_._.2 z & _._._._._._._._._._._._._._._._._._._._._._._._._._._.",
"_.2 | M.g.a _._._._._._.i x ( ) ) ( B p _._._._._._._._._._._._.",
"_.v j ' I.D.# _._._.i ( x.S.S.S.S.S.S.N.) a _._._._._._._._._._.",
"& f o 2 c.L.H.B g g I N.S.S.S.V.Z.V.V.Y.~.E.N _._._._._._._._._.",
"3 1 o % | I.Q.P.N.I d G.B.h.N.S.Z.V.Z.Y./.).!.k _._.; < 4 _._._.",
"f % o O ' C.W.U.V.b 3 b.^ C J.V.Z.Z.Z.Z.W.(.^.x.& < y ,.,.Y 9 _.",
"f % . O ` I.R.P.V.v.j.v.* V <.N.Z.Z.Z.Z.Z.Y.Y.Z.x 6 F ,.4.5.6.s ",
"f > . O _ m.T.P.S.S.S.N.f $ / Z.Z.Z.Z.V.Z.Z.Z.S.) w 4.4.4.Y E M ",
"9 * O + } b.I.Z.Z.Z.Z.Z.x.} N.Z.Z.Z.Z.Z.Z.Z.S.S.} : G G 0 _.> 1 ",
"& f O % k.G.z.m.Z.Z.Z.Z.Z.Z.S.Z.Z.Z.Z.Z.Z.Z.C.n.' _._._._._.- ; ",
"_.c % v K. .{ K.n.Z.Z.Z.Z.Z.Z.Z.Z.Z.Z.Z.Z.m.K.F.b _._._._._._._.",
"_.f } l. .s n ! s.F.n.C.C.Z.Z.Z.V.C.C.m.b.F.a.{ a _._._._._._._.",
"_._.j T 1 _._._.l y.d.F.c.b.n.z.b.l.l.F.a.t.t.v _._._._._._._._.",
"_._._._._._._._._.0 6.u.i.a.a.s.a.a.t.t.8.8.m _._._._._._._._._.",
"_._._._._._._._._._.9 R 8.8.8.8.8.8.8.8.E 0 _._._._._._._._._._.",
"_._._._._._._._._._._.# 9 n ,.,.Q ,.U 9 - _._._._._._._._._._._.",
"_._._._._._._._._._._._._._.; 6 < 6 ; _._._._._._._._._._._._._.",
"_._._._._._._._._._._._._._._.5 q 7 _._._._._._._._._._._._._._.",
"_._._._._._._._._._._._._._._.r o._._._._._._._._._._._._._._._.",
"_._._._._._._._._._._._._._._.Z $._._._._._._._._._._._._._._._.",
"_._._._._._._._._., q q _._._.S R _._._._._._._._._._._._._._._.",
"_._._._._._.e Z q , Z X.S r = +.y q ....@.< _._._._._._._._._._.",
"_._._._.A %.;.;.*.S Z ..X.Z t P A ..o.X.$.< _._._._._._._._._._.",
"_._._.D ;.&.;.;.;.#.o.r X.S S H ......#.$.: _._._._._._._._._._.",
"_._._.$.>.>.:.&.&.&.*.A Z r S D J +.L =.L u _._._._._._._._._._.",
"_._._.3.9.9.9.:.&.&.:.*.t r A K =.3.9.0.q.w.1.D _._._._._._._._.",
"_._._.1.Q Y 2.9.>.>.>.:.J *.9.9.9.9.0.e.p.p.p.Q _._._._._._._._.",
"_._._.U _._._.] 0.9.9.-.P >.0.9.9.9.0.0.e.p.p.[ _._._._._._._._.",
"_._._._._._._._.7.q.0.3.J >.9.9.9.0.9.9.r.p.p.p.E _._._._._._._.",
"_._._._._._._._._.~ W K t =.9.9.9.9.9.3.W ~ 7.p.~ _._._._._._._.",
"_._._._._._._._._._._._._.8 H -.=.$.H _._._._.~ _._._._._._._._.",
"_._._._._._._._._._._._._._._.8 _._._._._._._.4 _._._._._._._._."
};
