/* XPM */
static char *result[] = {
/* columns rows colors chars-per-pixel */
"32 32 5 1 ",
"  c #241816",
". c #222537",
"X c #465870",
"o c #66849A",
"O c #BADCDE",
/* pixels */
".Ooo.Ooo.Ooo.Ooo.Ooo.Ooo.Ooo.Ooo",
".oXX.oXX.oXX.oXX.oXX.oXX.oXX.oXX",
".oXX.oXX.oXX.oXX.oXX.oXX.oXX.oXX",
" XXX XXX XXX XXX XXX XXX XXX XXX",
".Ooo.Ooo.Ooo.Ooo.Ooo.Ooo.Ooo.Ooo",
".oXX.oXX.oXX.oXX.oXX.oXX.oXX.oXX",
".oXX.oXX.oXX.oXX.oXX.oXX.oXX.oXX",
" XXX XXX XXX XXX XXX XXX XXX XXX",
".Ooo.Ooo.Ooo.Ooo.Ooo.Ooo.Ooo.Ooo",
".oXX.oXX.oXX.oXX.oXX.oXX.oXX.oXX",
".oXX.oXX.oXX.oXX.oXX.oXX.oXX.oXX",
" XXX XXX XXX XXX XXX XXX XXX XXX",
".Ooo.Ooo.Ooo.Ooo.Ooo.Ooo.Ooo.Ooo",
".oXX.oXX.oXX.oXX.oXX.oXX.oXX.oXX",
".oXX.oXX.oXX.oXX.oXX.oXX.oXX.oXX",
" XXX XXX XXX XXX XXX XXX XXX XXX",
".Ooo.Ooo.Ooo.Ooo.Ooo.Ooo.Ooo.Ooo",
".oXX.oXX.oXX.oXX.oXX.oXX.oXX.oXX",
".oXX.oXX.oXX.oXX.oXX.oXX.oXX.oXX",
" XXX XXX XXX XXX XXX XXX XXX XXX",
".Ooo.Ooo.Ooo.Ooo.Ooo.Ooo.Ooo.Ooo",
".oXX.oXX.oXX.oXX.oXX.oXX.oXX.oXX",
".oXX.oXX.oXX.oXX.oXX.oXX.oXX.oXX",
" XXX XXX XXX XXX XXX XXX XXX XXX",
".Ooo.Ooo.Ooo.Ooo.Ooo.Ooo.Ooo.Ooo",
".oXX.oXX.oXX.oXX.oXX.oXX.oXX.oXX",
".oXX.oXX.oXX.oXX.oXX.oXX.oXX.oXX",
" XXX XXX XXX XXX XXX XXX XXX XXX",
".Ooo.Ooo.Ooo.Ooo.Ooo.Ooo.Ooo.Ooo",
".oXX.oXX.oXX.oXX.oXX.oXX.oXX.oXX",
".oXX.oXX.oXX.oXX.oXX.oXX.oXX.oXX",
" XXX XXX XXX XXX XXX XXX XXX XXX"
};