/* XPM */
static char *result[] = {
/* columns rows colors chars-per-pixel */
"32 32 5 1 ",
"  c #0F0F14",
". c #1E1D37",
"X c #384453",
"o c #497994",
"O c #8BBBCB",
/* pixels */
"     ..o .XXXXXXX .X. X. X .o   ",
" .XXXXXo .... ..o ... .. o .o...",
" ..... o .    ..o     XXXo .X...",
"...X.. X ..X. XoOooo.    o .XXXX",
".XXX   X ..X. ..O..o. ...o ..  X",
" ..X.. . XXX....o..O. ...X X.. X",
"  .X.X     X....o. O. .X.X XXX X",
" ....o. .. o.XXXX. o.  o.. X.. X",
" ..Xoo. XX O .X..  o. .o.. X.  X",
".X...o..X. O .X... XX .o.. X.X .",
".X...oooX. O       .. .X.  ..X .",
"XXXXXo.    o .oooOOoXXXXXX  .o .",
".   .o..XXXo..o.         . ..o..",
"XXX  o.....o..o. ..XXoXX..XooOoX",
"... .X    .X .X. ....O....X..O..",
"X.. ...X. .X .XXXXXX.O....X .o..",
"XXX ...X. .X ......X.O..XXX .o. ",
"X.    .o.       ...X o..... .X. ",
"X. XXXoOoXX. .XXX .X o.     .X. ",
"X.   ..O.... .o.. .X X..X..     ",
"XXX.  .O     .o.  .X XXXX.. XXXX",
"  o. XXo..XXXoO.. .X ...o.. .   ",
"X o. ..X... ..O..      .oooX  ..",
"X o......   ..oooooXX ..o.... ..",
"X oOOOoXX.. ....X.... X.X...X ..",
"X ...o.         X .X. X.X.XXX XX",
"X  ..o.. XXoooO X .X. o.....o ..",
". OOoo.. .....O . .X..o.   .o...",
". o..X.X     .o    X..O. . .OXXX",
". o..X.OooXX .o.. .XXoO. X .O...",
"  o. ..O..   .XXX .X..o. X .O   ",
"XXo.  .o.... .... .X..X. X .O XX"
};
