/* XPM */
static char *result[] = {
/* columns rows colors chars-per-pixel */
"32 32 117 2 ",
"   c #AA7800",
".  c #AA7900",
"X  c #AB7A00",
"o  c #AB7B00",
"O  c #AC7B00",
"+  c #AC7C00",
"@  c #BD8A02",
"#  c #BD8A03",
"$  c #BA8907",
"%  c #B18208",
"&  c #B4860D",
"*  c #BD8D0B",
"=  c #BA8A0D",
"-  c #BA8B0E",
";  c #BD8E0E",
":  c #B28614",
">  c #BA8B11",
",  c #B98B12",
"<  c #BA8C12",
"1  c #BA8D16",
"2  c #BD8F14",
"3  c #BD8F15",
"4  c #BA8F1D",
"5  c #BD911C",
"6  c #BE921D",
"7  c #BD921E",
"8  c #B88E23",
"9  c #B88F24",
"0  c #BB9229",
"q  c #BE9529",
"w  c #BA932C",
"e  c #BB932D",
"r  c #BF9939",
"t  c #BF9A3A",
"y  c #C39005",
"u  c #C39007",
"i  c #C49412",
"p  c #E2A704",
"a  c #EAAD00",
"s  c #EAAE02",
"d  c #EBB006",
"f  c #EEB30A",
"g  c #F7BA0A",
"h  c #C39826",
"j  c #C39926",
"k  c #C49926",
"l  c #C59B2A",
"z  c #C69D2C",
"x  c #C59D33",
"c  c #CBA02A",
"v  c #CBA231",
"b  c #CDA334",
"n  c #CEA535",
"m  c #CEA536",
"M  c #EAB725",
"N  c #EABA2F",
"B  c #EABE3F",
"V  c #C19E41",
"C  c #C4A249",
"Z  c #C5A44D",
"A  c #C5A44E",
"S  c #C6A44F",
"D  c #C6A651",
"F  c #C7A651",
"G  c #C7A653",
"H  c #D0B05C",
"J  c #E0BB52",
"K  c #E0BB53",
"L  c #E0BB54",
"P  c #E0BC54",
"I  c #CFB36A",
"U  c #CFB36C",
"Y  c #D0B46E",
"T  c #D1B671",
"R  c #D1B672",
"E  c #D3B977",
"W  c #D3BA79",
"Q  c #EAC048",
"!  c #EBC148",
"~  c #E6C158",
"^  c #E4C05A",
"/  c #E7C25A",
"(  c #E6C35D",
")  c #E7C35D",
"_  c #E9C55D",
"`  c #F5CD56",
"'  c #F5CE5B",
"]  c #F4CD5D",
"[  c #F6CF5E",
"{  c #EAC762",
"}  c #EAC865",
"|  c #E8CB7A",
" . c #F6D676",
".. c #F8D778",
"X. c #ECD48F",
"o. c #E3CD90",
"O. c #E5D5AE",
"+. c #E5D6AF",
"@. c #E5D6B0",
"#. c #E5D7B2",
"$. c #E8DAB8",
"%. c #E8DBB8",
"&. c #EADEBE",
"*. c #ECE0C2",
"=. c #EEE3C9",
"-. c #EEE4CB",
";. c #EFE6CF",
":. c #F0E7D1",
">. c #F0E8D2",
",. c #FBF8F2",
"<. c #FCFAF6",
"1. c #FDFCF8",
"2. c #FDFCF9",
"3. c #FDFCFA",
"4. c #FEFDFB",
"5. c white",
"6. c None",
/* pixels */
"6.6.6.6.6.6.6.6.6.6.6.6.6.6.6.6.6.6.6.6.6.6.6.6.6.6.6.6.6.6.6.6.",
"6.6.6.6.6.6.6.6.6.6.6.6.6.6.6.6.6.6.6.6.6.6.6.6.6.6.6.6.6.6.6.6.",
"6.6.6.6.6.6.6.6.6.6.6.6.6.6.6.6.6.6.6.6.6.6.6.6.6.6.6.6.6.6.6.6.",
"6.6.6.6.6.6.6.6.6.6.6.6.6.6.6.    O + 6.6.6.6.6.6.6.6.6.6.6.6.6.",
"6.6.6.6.6.6.6.6.6.6.6.6.6.6.9 Y I : . o 6.6.6.6.6.6.6.6.6.6.6.6.",
"6.6.6.6.6.6.6.6.6.6.6.6.6.w E 1.4.W G 8 o 6.6.6.6.6.6.6.6.6.6.6.",
"6.6.6.6.6.6.6.6.6.6.6.6.6.A 3.3.;.,.5.U X + 6.6.6.6.6.6.6.6.6.6.",
"6.6.6.6.6.6.6.6.6.6.6.6.6.S <.=.Z %.2.Y X + 6.6.6.6.6.6.6.6.6.6.",
"6.6.6.6.6.6.6.6.6.6.6.6.6.D -.V &.C $.T X + 6.6.6.6.6.6.6.6.6.6.",
"6.6.6.6.6.6.6.6.6.6.6.6.6.F *.e >.r O.T X + 6.6.6.6.6.6.6.6.6.6.",
"6.6.6.6.6.6.6.6.6.6.6.6.6.x | 0 :.t +.T X + 6.6.6.6.6.6.6.6.6.6.",
"6.6.6.6.6.6.6.6.6.6.6.6.6.k / 4 X.q @.T X + 6.6.6.6.6.6.6.6.6.6.",
"6.6.6.6.6.6.6.6.6.6.6.6.6.k ) 1 { 7 #.R X + 6.6.6.6.6.6.6.6.6.6.",
"6.6.6.6.6.6.6.6.6.6.6.6.6.k ) > B 2 o.H X + 6.6.6.6.6.6.6.6.6.6.",
"6.6.6.6.6.6.6.6.6.6.6.6.6.k ) $ a @ P m X + 6.6.6.6.6.6.6.6.6.6.",
"6.6.6.6.6.6.6.6.6.6.6.6.6.k ) $ a @ L n X + 6.6.6.6.6.6.6.6.6.6.",
"6.6.6.6.6.6.6.6.6.6.6.6.6.k ) $ a @ L n X + 6.6.6.6.6.6.6.6.6.6.",
"6.6.6.6.6.6.6.6.6.6.6.6.6.k ) $ s # L n X + 6.6.6.6.6.6.6.6.6.6.",
"6.6.6.6.6.6.6.6.6.6.6.6.6.k ) < Q 3 K n X + 6.6.6.6.6.6.6.6.6.6.",
"6.6.6.6.6.6.6.6.6.6.6.6.6.k ) 1 } 5 J n X + 6.6.6.6.6.6.6.6.6.6.",
"6.6.6.6.6.6.6.6.6.6.6.6.6.k ) - N ; K n X + 6.6.6.6.6.6.6.6.6.6.",
"6.6.6.6.6.6.6.6.6.6.6.6.6.k ) = M * K n X + 6.6.6.6.6.6.6.6.6.6.",
"6.6.6.6.6.6.6.6.6.6.6.6.6.k ( , ! 2 J n X + 6.6.6.6.6.6.6.6.6.6.",
"6.6.6.6.6.6.6.6.6.6.6.6.6.k _ u p i ^ n X + 6.6.6.6.6.6.6.6.6.6.",
"6.6.6.6.6.6.6.6.6.6.6.6.6.j [ d y ~ ..b X + 6.6.6.6.6.6.6.6.6.6.",
"6.6.6.6.6.6.6.6.6.6.6.6.6.h ' g f ]  .v X + 6.6.6.6.6.6.6.6.6.6.",
"6.6.6.6.6.6.6.6.6.6.6.6.6.6.c ` ` c 6 & O 6.6.6.6.6.6.6.6.6.6.6.",
"6.6.6.6.6.6.6.6.6.6.6.6.6.6.6.z l % X o 6.6.6.6.6.6.6.6.6.6.6.6.",
"6.6.6.6.6.6.6.6.6.6.6.6.6.6.6.6.6.6.6.6.6.6.6.6.6.6.6.6.6.6.6.6.",
"6.6.6.6.6.6.6.6.6.6.6.6.6.6.6.6.6.6.6.6.6.6.6.6.6.6.6.6.6.6.6.6.",
"6.6.6.6.6.6.6.6.6.6.6.6.6.6.6.6.6.6.6.6.6.6.6.6.6.6.6.6.6.6.6.6.",
"6.6.6.6.6.6.6.6.6.6.6.6.6.6.6.6.6.6.6.6.6.6.6.6.6.6.6.6.6.6.6.6."
};
