/* XPM */
static char *result[] = {
/* columns rows colors chars-per-pixel */
"32 32 235 2 ",
"   c #A97900",
".  c #AA7900",
"X  c #AA7A00",
"o  c #AB7A00",
"O  c #AB7B00",
"+  c #AC7B00",
"@  c #AC7C00",
"#  c #AD7D01",
"$  c #AD7D02",
"%  c #AD7D03",
"&  c #AE7E03",
"*  c #AF7F04",
"=  c #AF8008",
"-  c #AF8009",
";  c #B08006",
":  c #B08106",
">  c #B08107",
",  c #B18208",
"<  c #B28309",
"1  c #B0820A",
"2  c #B2830A",
"3  c #B2840A",
"4  c #B0820C",
"5  c #B0830E",
"6  c #B4850C",
"7  c #B4860D",
"8  c #B5870F",
"9  c #B68810",
"0  c #B78911",
"q  c #B98D17",
"w  c #BC8F16",
"e  c #B68C1F",
"r  c #BE9015",
"t  c #BE921E",
"y  c #BA922C",
"u  c #CC9300",
"i  c #CA9400",
"p  c #CB9400",
"a  c #CB9500",
"s  c #CD9400",
"d  c #CC9500",
"f  c #CD9500",
"g  c #CF9700",
"h  c #CB9707",
"j  c #C39008",
"k  c #C3920D",
"l  c #C4930F",
"z  c #D69B00",
"x  c #D69C00",
"c  c #C39415",
"v  c #C69614",
"b  c #C69615",
"n  c #C89713",
"m  c #CB9913",
"M  c #CD9D18",
"N  c #DFA400",
"B  c #DEA914",
"V  c #DDA916",
"C  c #DBA81A",
"Z  c #E0A500",
"A  c #E3A600",
"S  c #E3A700",
"D  c #E4A700",
"F  c #E4A800",
"G  c #E6A900",
"H  c #E7AA01",
"J  c #E6AA02",
"K  c #E7AD06",
"L  c #E9AC00",
"P  c #EBAE01",
"I  c #E8AC02",
"U  c #EAAE05",
"Y  c #E3AA0A",
"T  c #EEB103",
"R  c #F4B502",
"E  c #F6B806",
"W  c #F7B806",
"Q  c #F7B907",
"!  c #F8B800",
"~  c #F9B800",
"^  c #FAB900",
"/  c #F8B904",
"(  c #F8B905",
")  c #F8BA07",
"_  c #F7B908",
"`  c #F7BA0A",
"'  c #F9BB08",
"]  c #F8BB0A",
"[  c #F8BB0B",
"{  c #F8BB0D",
"}  c #E1AB15",
"|  c #F9BD10",
" . c #C29825",
".. c #C49926",
"X. c #C69B26",
"o. c #C49A28",
"O. c #C59B2A",
"+. c #C49A2E",
"@. c #C69D2C",
"#. c #C49C34",
"$. c #CBA02B",
"%. c #CBA12F",
"&. c #D8AA2F",
"*. c #CBA234",
"=. c #CCA334",
"-. c #CDA436",
";. c #D0A531",
":. c #D0A532",
">. c #D3A937",
",. c #D2AA3D",
"<. c #D4AD3F",
"1. c #D6AE3E",
"2. c #E7B52C",
"3. c #F5C026",
"4. c #F7C229",
"5. c #FAC428",
"6. c #FAC429",
"7. c #FAC529",
"8. c #EFC038",
"9. c #F8C531",
"0. c #F9C632",
"q. c #F9C733",
"w. c #F8C634",
"e. c #F9C736",
"r. c #F8C737",
"t. c #F3C43A",
"y. c #F5C73F",
"u. c #FBC938",
"i. c #FBCA3B",
"p. c #CBA642",
"a. c #C5A44D",
"s. c #C5A44E",
"d. c #D5AD41",
"f. c #D6AF42",
"g. c #D6AF43",
"h. c #D0AB49",
"j. c #D8B046",
"k. c #D8B247",
"l. c #D9B347",
"z. c #C5A450",
"x. c #CDAF5E",
"c. c #DFBA51",
"v. c #DFBB52",
"b. c #E0B844",
"n. c #E4BD4D",
"m. c #E0BB53",
"M. c #E2BC50",
"N. c #CEB36D",
"B. c #CEB36E",
"V. c #CEB36F",
"C. c #D7B863",
"Z. c #D5BC7C",
"A. c #F6C843",
"S. c #F8CB46",
"D. c #FACC45",
"F. c #F4C94A",
"G. c #F6CB4E",
"H. c #F6CC4F",
"J. c #F7CC4F",
"K. c #F8CB4A",
"L. c #F8CC4A",
"P. c #FACD4A",
"I. c #F9CD4C",
"U. c #E6C259",
"Y. c #E7C35B",
"T. c #E7C35C",
"R. c #E7C35D",
"E. c #E8C55F",
"W. c #F5CD55",
"Q. c #F5CD57",
"!. c #F8CE50",
"~. c #FBD25A",
"^. c #E6C462",
"/. c #E8C86E",
"(. c #E9C96E",
"). c #F1D06F",
"_. c #FBD568",
"`. c #F8D46A",
"'. c #F5D270",
"]. c #F4D371",
"[. c #F5D471",
"{. c #F6D470",
"}. c #F7D571",
"|. c #F6D472",
" X c #F8D671",
".X c #F8D672",
"XX c #F9D875",
"oX c #F8D876",
"OX c #F8D877",
"+X c #F9D979",
"@X c #F9DA7B",
"#X c #F9DA7C",
"$X c #DAC58E",
"%X c #DAC58F",
"&X c #DAC691",
"*X c #DDC995",
"=X c #DDCA98",
"-X c #DFCC9C",
";X c #E9D087",
":X c #F9DD87",
">X c #FADF8E",
",X c #FEE190",
"<X c #FAE095",
"1X c #FBE195",
"2X c #FAE29B",
"3X c #F9E29F",
"4X c #FAE39E",
"5X c #E4D3A9",
"6X c #ECDFBC",
"7X c #FBE4A0",
"8X c #FCE7AB",
"9X c #FEEEBD",
"0X c #ECE2C6",
"qX c #ECE2C7",
"wX c #EEE3C9",
"eX c #EEE5CE",
"rX c #F4E7C2",
"tX c #F1E9D2",
"yX c #FCF2D2",
"uX c #FBF2D6",
"iX c #FEF4D5",
"pX c #FEF4D7",
"aX c #FDF7E7",
"sX c #FEF9EA",
"dX c #FEFAED",
"fX c #FEFAEE",
"gX c #FEFAEF",
"hX c #FCF9F1",
"jX c #FEFDFB",
"kX c #FFFEFB",
"lX c #FFFFFD",
"zX c #FFFFFE",
"xX c #FEFEFF",
"cX c white",
"vX c None",
/* pixels */
"vXvXvXvXvXvXvXvXvXvXvXvXvXvXvXvXvXvXvXvXvXvXvXvXvXvXvXvXvXvXvXvX",
"vXvXvXvXvXvXvXvXvXvXvXvXvXvXvXvXvXvXvXvXvXvXvXvXvXvXvXvXvXvXvXvX",
"vXvXvXvXvXvXvXvXvXvXvXvXvXvXvXvXvXvXvXvXvXvXvXvXvXvXvXvXvXvXvXvX",
"vXvXvXvXvXvXvXvXvXvXvXvXvXvXvX. X + vXvXvXvXvXvXvXvXvXvXvXvXvXvX",
"vXvXvXvXvXvXvXvXvXvXvXvXvXvX0 -.=.2   vXvXvXvXvXvXvXvXvXvXvXvXvX",
"vXvXvXvXvXvXvXvXvXvXvXvXw ..;.J.H.:.o.9 o vXvXvXvXvXvXvXvXvXvXvX",
"vXvXvXvXvXvXvXvXvXvXvXy C.:XF.U E K. Xg.7 O vXvXvXvXvXvXvXvXvXvX",
"vXvXvXvXvXvXvXvXvXvXe =XfX<XY k I W L.}.k.3 @ vXvXvXvXvXvXvXvXvX",
"vXvXvXvXvXvXvXvXvX% -XhX1X} X.^.c H _ S.|.l.# @ vXvXvXvXvXvXvXvX",
"vXvXvXvXvXvXvXvXvX- 5X,XV p.tXuX(.v D [ D.m.& @ vXvXvXvXvXvXvXvX",
"vXvXvXvXvXvXvXvX5 *X'.C h.eXcXlXyX2.p Z e.).f.* @ vXvXvXvXvXvXvX",
"vXvXvXvXvXvXvXvX1 ;Xi.u V.cXcXcXkX8X+.x e.#XE.; @ vXvXvXvXvXvXvX",
"vXvXvXvXvXvXvXvX> U.5.s N.cXcXcXcXxXz.z q.@XR.; @ vXvXvXvXvXvXvX",
"vXvXvXvXvXvXvXvX> Y.6.s B.cXcXcXcXjXs.&._.+XR.; @ vXvXvXvXvXvXvX",
"vXvXvXvXvXvXvXvX> Y.6.s x.sXcXcXcXjXa.%XiX>XT.; @ vXvXvXvXvXvXvX",
"vXvXvXvXvXvXvXvX> Y.6.f *.7XdXcXcXjXa.$XcXpX/.> @ vXvXvXvXvXvXvX",
"vXvXvXvXvXvXvXvX> Y.6.f %.XX2XgXcXjXa.$XcXzX6X4 @ vXvXvXvXvXvXvX",
"vXvXvXvXvXvXvXvX> Y.6.f h 0.OX2XgXjXa.$XcXcXqX4 @ vXvXvXvXvXvXvX",
"vXvXvXvXvXvXvXvX> Y.6.f p ' 9.oX4XaXs.$XcXcX0X4 @ vXvXvXvXvXvXvX",
"vXvXvXvXvXvXvXvX> Y.6.f a ~ ) w..X3X#.&XcXcX0X4 @ vXvXvXvXvXvXvX",
"vXvXvXvXvXvXvXvX> T.7.d p ^ ! ( r.`. .j.9XcXwX4 @ vXvXvXvXvXvXvX",
"vXvXvXvXvXvXvXvX: <.8.B g F ! / 4.b.M A ~.rXZ.= @ vXvXvXvXvXvXvX",
"vXvXvXvXvXvXvXvXvX$ c.u.N i K 3.n.n G | P.v.# @ vXvXvXvXvXvXvXvX",
"vXvXvXvXvXvXvXvXvX# k.t.] S b M.l L { I.].g.# @ vXvXvXvXvXvXvXvX",
"vXvXvXvXvXvXvXvXvXvX< 1.y.Q J j P ` !.[.d.; @ vXvXvXvXvXvXvXvXvX",
"vXvXvXvXvXvXvXvXvXvXvX8 >.A.R T ` G.{.,., O vXvXvXvXvXvXvXvXvXvX",
"vXvXvXvXvXvXvXvXvXvXvXvXq r m W.Q.$.t 6 O vXvXvXvXvXvXvXvXvXvXvX",
"vXvXvXvXvXvXvXvXvXvXvXvXvXvXvX@.O.,   vXvXvXvXvXvXvXvXvXvXvXvXvX",
"vXvXvXvXvXvXvXvXvXvXvXvXvXvXvXvXvXvXvXvXvXvXvXvXvXvXvXvXvXvXvXvX",
"vXvXvXvXvXvXvXvXvXvXvXvXvXvXvXvXvXvXvXvXvXvXvXvXvXvXvXvXvXvXvXvX",
"vXvXvXvXvXvXvXvXvXvXvXvXvXvXvXvXvXvXvXvXvXvXvXvXvXvXvXvXvXvXvXvX",
"vXvXvXvXvXvXvXvXvXvXvXvXvXvXvXvXvXvXvXvXvXvXvXvXvXvXvXvXvXvXvXvX"
};
