/* XPM */
static char *result[] = {
/* columns rows colors chars-per-pixel */
"32 32 2 1 ",
"  c #AC7C00",
". c None",
/* pixels */
"................................",
"................................",
"................................",
"...............   ..............",
"...............   ..............",
"...............   ..............",
"...............   ..............",
"...............   ..............",
"...............   ..............",
"...............   ..............",
"...............   ..............",
"...............   ..............",
"...............   ..............",
"...............   ..............",
"...............   ..............",
"...............   ..............",
"...............   ..............",
"...............   ..............",
"...............   ..............",
"...............   ..............",
"...............   ..............",
"...............   ..............",
"...............   ..............",
"...............   ..............",
"...............   ..............",
"...............   ..............",
"...............   ..............",
"...............   ..............",
"................................",
"................................",
"................................",
"................................"
};
