/* XPM */
static char *result[] = {
/* columns rows colors chars-per-pixel */
"32 32 105 2 ",
"   c #AB7B00",
".  c #B4860D",
"X  c #B6880F",
"o  c #B68912",
"O  c #BA8D15",
"+  c #BB8E1A",
"@  c #BD911B",
"#  c #B78D21",
"$  c #B88F24",
"%  c #BB932C",
"&  c #BC9531",
"*  c #C48E00",
"=  c #D59C00",
"-  c #D89E00",
";  c #DBA203",
":  c #D5A41E",
">  c #E0A706",
",  c #E7AA00",
"<  c #ECAF01",
"1  c #ECB20E",
"2  c #F4B501",
"3  c #F8B700",
"4  c #F6B805",
"5  c #F8B901",
"6  c #F9BB08",
"7  c #ECB61C",
"8  c #F7BF1B",
"9  c #F8BF19",
"0  c #C19521",
"q  c #CA9D24",
"w  c #C69C2B",
"e  c #C09C3E",
"r  c #CEA22B",
"t  c #D1A222",
"y  c #D5A728",
"u  c #CEA537",
"i  c #CEA638",
"p  c #D2A730",
"a  c #D5AA34",
"s  c #D7AD38",
"d  c #DBB13B",
"f  c #F9C01D",
"g  c #F8C223",
"h  c #F8C42D",
"j  c #F9C634",
"k  c #F7C639",
"l  c #F9C739",
"z  c #CBA747",
"x  c #D5AE44",
"c  c #D0AD4F",
"v  c #DAB141",
"b  c #DCB64C",
"n  c #C9A850",
"m  c #CAAB5C",
"M  c #D3B156",
"N  c #D6B55D",
"B  c #E1BD55",
"V  c #E3BF58",
"C  c #CCAF63",
"Z  c #D1B774",
"A  c #ECC042",
"S  c #EEC449",
"D  c #FACC46",
"F  c #E5C15B",
"G  c #E8C45E",
"H  c #FACF52",
"J  c #F8CF58",
"K  c #F9D057",
"L  c #F8D15C",
"P  c #EECB64",
"I  c #F0CE6B",
"U  c #F8D263",
"Y  c #F6D46E",
"T  c #F8D56C",
"R  c #F4D371",
"E  c #F8D773",
"W  c #F6D77B",
"Q  c #D8C38D",
"!  c #DBC691",
"~  c #F7DA85",
"^  c #F9DC87",
"/  c #F9DE8B",
"(  c #EBD599",
")  c #F5DB92",
"_  c #FADF91",
"`  c #FBE297",
"'  c #FBE399",
"]  c #E0CEA0",
"[  c #E6D4A6",
"{  c #E5D6AF",
"}  c #E8D8AE",
"|  c #E6D8B2",
" . c #F1E2B9",
".. c #EDE4CD",
"X. c #FDF0C8",
"o. c #F0E7D1",
"O. c #F1E9D4",
"+. c #FDF3D3",
"@. c #FDF5DA",
"#. c #FCF6E4",
"$. c #F9F6EE",
"%. c #FEFAEC",
"&. c #FEFCF4",
"*. c #FFFFFE",
"=. c None",
/* pixels */
"=.=.=.=.=.=.=.=.=.=.=.=.=.=.=.=.=.=.=.=.=.=.=.=.=.=.=.=.=.=.=.=.",
"=.=.=.=.=.=.=.=.=.=.=.=.=.=.=.=.=.=.=.=.=.=.=.=.=.=.=.=.=.=.=.=.",
"=.=.=.=.=.=.=.=.=.=.=.=.=.=.=.=.=.=.=.=.=.=.=.=.=.=.=.=.=.=.=.=.",
"=.=.=.=.=.=.=.=.=.=.=.=.=.              =.=.=.=.=.=.=.=.=.=.=.=.",
"=.=.=.=.=.=.=.=.=.=.=.=.$ u u a u u i O   =.=.=.=.=.=.=.=.=.=.=.",
"=.=.=.=.=.=.=.=.=.=.0 w d H H H H H H d w +   =.=.=.=.=.=.=.=.=.",
"=.=.=.=.=.=.=.=.=.@ V T j 2 , , , , 2 j T F O   =.=.=.=.=.=.=.=.",
"=.=.=.=.=.=.=.=.O G T j 2 > O X o O ; 3 j T F o   =.=.=.=.=.=.=.",
"=.=.=.=.=.=.=.. P Y h 2 ; q P I I P q ; 4 h T F .   =.=.=.=.=.=.",
"=.=.=.=.=.=.=.o P h 4 = t S h E R h S r = 4 h P o   =.=.=.=.=.=.",
"=.=.=.=.=.=.% [ W 8 = p A f 4 h T L j 1 = = 8 Y V o   =.=.=.=.=.",
"=.=.=.=.=.=.& $.X.h * x D 3 3 4 j T J f = * f E R O   =.=.=.=.=.",
"=.=.=.=.=.=.& $.&.l * x U g 3 3 3 j T K t * f E R +   =.=.=.=.=.",
"=.=.=.=.=.=.& $.&.l * N ` U g 4 3 3 j T x * f E T O   =.=.=.=.=.",
"=.=.=.=.=.=.& $.&.l * Q @./ U f 5 5 3 j a * 8 E R +   =.=.=.=.=.",
"=.=.=.=.=.=.& $.&.l * Q *.@./ U f 5 3 6 = * 8 E R O   =.=.=.=.=.",
"=.=.=.=.=.=.& #.&.l * Q *.*.@./ T f 5 5 = * f E Y O   =.=.=.=.=.",
"=.=.=.=.=.=.+ ) #.l * Q *.*.*.@.^ U g 5 = * f E Y +   =.=.=.=.=.",
"=.=.=.=.=.=.+ R / g * Q *.*.*.*.@./ L g = * 8 E R +   =.=.=.=.=.",
"=.=.=.=.=.=.O R E 9 * Q *.*.*.*.*.+.` L y * 8 E R o   =.=.=.=.=.",
"=.=.=.=.=.=.+ R E 9 * Q *.*.*.*.*.*.+.` x * 8 E R +   =.=.=.=.=.",
"=.=.=.=.=.=.O b Y 9 - M ..*.*.*.*.*.*.( t - 9 Y b X   =.=.=.=.=.",
"=.=.=.=.=.=.=.. P j 6 - c O.*.*.*.*.o.Z v j j P .   =.=.=.=.=.=.",
"=.=.=.=.=.=.=.. F R j 6 ; z O.O.O.o.C ] *.+.~ V .   =.=.=.=.=.=.",
"=.=.=.=.=.=.=.=.o F T l 6 > O O % & { *.*.&.} o   =.=.=.=.=.=.=.",
"=.=.=.=.=.=.=.=.=.O b R k 4 < 7  .O.$.*.*.| $   =.=.=.=.=.=.=.=.",
"=.=.=.=.=.=.=.=.=.=.@ @ s L L U ' %.*.! & %   =.=.=.=.=.=.=.=.=.",
"=.=.=.=.=.=.=.=.=.=.=.=.@ w w w w n m $   =.=.=.=.=.=.=.=.=.=.=.",
"=.=.=.=.=.=.=.=.=.=.=.=.=.=.=.=.=.=.=.=.=.=.=.=.=.=.=.=.=.=.=.=.",
"=.=.=.=.=.=.=.=.=.=.=.=.=.=.=.=.=.=.=.=.=.=.=.=.=.=.=.=.=.=.=.=.",
"=.=.=.=.=.=.=.=.=.=.=.=.=.=.=.=.=.=.=.=.=.=.=.=.=.=.=.=.=.=.=.=.",
"=.=.=.=.=.=.=.=.=.=.=.=.=.=.=.=.=.=.=.=.=.=.=.=.=.=.=.=.=.=.=.=."
};
